<svg xmlns="http://www.w3.org/2000/svg" width="460" height="1000" viewBox="0 0 460 1000">
  <rect width="460" height="1000" rx="40" fill="#0e0e0f"/>
  <text x="50" y="100" fill="#f0efed" font-family="sans-serif" font-size="32" font-weight="bold">Today</text>
  <text x="50" y="130" fill="#555452" font-family="sans-serif" font-size="13" letter-spacing="2">FRI · MAR 27</text>
  <!-- Exercise cards -->
  <rect x="30" y="160" width="400" height="80" rx="14" fill="#1e1e21" stroke="#252528" stroke-width="1"/>
  <rect x="42" y="175" width="4" height="50" rx="2" fill="#2a6fa8"/>
  <text x="60" y="198" fill="#f0efed" font-family="sans-serif" font-size="17" font-weight="600">Barbell Row</text>
  <text x="60" y="220" fill="#555452" font-family="sans-serif" font-size="13">6 days ago</text>
  <text x="390" y="198" fill="#c8b89a" font-family="monospace" font-size="20" text-anchor="end" font-weight="500">160</text>
  <text x="390" y="220" fill="#555452" font-family="sans-serif" font-size="12" text-anchor="end">8 reps</text>

  <rect x="30" y="255" width="400" height="80" rx="14" fill="#1e1e21" stroke="#252528" stroke-width="1"/>
  <rect x="42" y="270" width="4" height="50" rx="2" fill="#2a6fa8"/>
  <text x="60" y="293" fill="#f0efed" font-family="sans-serif" font-size="17" font-weight="600">Bench Press</text>
  <text x="60" y="315" fill="#555452" font-family="sans-serif" font-size="13">Yesterday</text>
  <text x="390" y="293" fill="#c8b89a" font-family="monospace" font-size="20" text-anchor="end" font-weight="500">172.5</text>
  <text x="390" y="315" fill="#555452" font-family="sans-serif" font-size="12" text-anchor="end">8 reps</text>

  <rect x="30" y="350" width="400" height="80" rx="14" fill="#1e1e21" stroke="#252528" stroke-width="1"/>
  <rect x="42" y="365" width="4" height="50" rx="2" fill="#2a7a62"/>
  <text x="60" y="388" fill="#f0efed" font-family="sans-serif" font-size="17" font-weight="600">Incline Dumbbell Press</text>
  <text x="60" y="410" fill="#555452" font-family="sans-serif" font-size="13">4 days ago</text>
  <text x="390" y="388" fill="#c8b89a" font-family="monospace" font-size="20" text-anchor="end" font-weight="500">82.5</text>
  <text x="390" y="410" fill="#555452" font-family="sans-serif" font-size="12" text-anchor="end">8 reps</text>

  <!-- FAB -->
  <circle cx="390" cy="900" r="30" fill="#c8b89a"/>
  <text x="390" y="910" fill="#0e0e0f" font-family="sans-serif" font-size="32" text-anchor="middle" font-weight="300">+</text>
</svg>
